<?xml version="1.0" encoding="UTF-8" standalone="no"?>
<!-- Uploaded to: SVG Repo, www.svgrepo.com, Generator: SVG Repo Mixer Tools -->

<svg
   width="716.66718"
   height="583.34735"
   viewBox="0 0 21.500015 17.500421"
   fill="none"
   version="1.1"
   id="svg1220"
   sodipodi:docname="backspace-svgrepo-com.svg"
   xmlns:inkscape="http://www.inkscape.org/namespaces/inkscape"
   xmlns:sodipodi="http://sodipodi.sourceforge.net/DTD/sodipodi-0.dtd"
   xmlns="http://www.w3.org/2000/svg"
   xmlns:svg="http://www.w3.org/2000/svg">
  <defs
     id="defs1224" />
  <sodipodi:namedview
     id="namedview1222"
     pagecolor="#505050"
     bordercolor="#eeeeee"
     borderopacity="1"
     inkscape:showpageshadow="0"
     inkscape:pageopacity="0"
     inkscape:pagecheckerboard="0"
     inkscape:deskcolor="#505050"
     showgrid="false" />
  <path
     d="m 20.75,8.75021 c 0,3.7712 0,5.6569 -1.2039,6.8284 -1.204,1.1716 -3.1417,1.1716 -7.0171,1.1716 H 9.892 c -2.22742,0 -3.34115,0 -4.27086,-0.5014 -0.9297,-0.5015 -1.51997,-1.4205 -2.70053,-3.2586 l -0.6808,-1.06 C 1.2466,10.38381 0.75,9.61061 0.75,8.75021 c 0,-0.8604 0.4966,-1.6336 1.48981,-3.17999 l 0.6808,-1.06 C 4.10117,2.67212 4.69144,1.75307 5.62114,1.25164 6.55085,0.75021005 7.66458,0.75021005 9.892,0.75021005 h 2.637 c 3.8754,0 5.8131,0 7.0171,1.17156995 0.6712,0.65318 0.9682,1.52832 1.0996,2.82843"
     stroke="#1C274C"
     stroke-width="1.5"
     stroke-linecap="round"
     id="path1216"
     style="stroke:#ffffff;stroke-opacity:1" />
  <path
     d="m 14.25,6.25023 -5,4.99998 m 0,-5 5,5"
     stroke="#1C274C"
     stroke-width="1.5"
     stroke-linecap="round"
     id="path1218"
     style="stroke:#ffffff;stroke-opacity:1" />
</svg>
