<svg xmlns="http://www.w3.org/2000/svg" version="1.1" xmlns:xlink="http://www.w3.org/1999/xlink" xmlns:svgjs="http://svgjs.dev/svgjs" viewBox="0 0 600 600"><path d="M77.62236785888672,311.5384521484375C73.77621205647786,349.30069224039715,135.6643180847168,409.0909169514974,134.26571655273438,439.510498046875C132.86711502075195,469.9300791422526,52.272715250651046,472.02797444661456,69.23075866699219,494.0559387207031C86.18880208333333,516.0839029947916,193.53146107991537,574.1258341471354,236.01397705078125,571.6782836914062C278.49649302164715,569.2307332356771,281.29369099934894,482.5174865722656,324.1258544921875,479.3706359863281C366.95801798502606,476.2237854003906,456.2936706542969,551.9230550130209,493.0069580078125,552.7971801757812C529.7202453613281,553.6713053385416,534.0908915201823,515.2097880045573,544.4055786132812,484.6153869628906C554.7202657063802,454.02098592122394,572.9020741780599,391.2587483723958,554.8950805664062,369.23077392578125C536.8880869547526,347.2027994791667,463.4615173339844,378.32166798909503,436.3636169433594,352.4475402832031C409.2657165527344,326.5734125773112,421.50348409016925,222.55243937174478,392.30767822265625,213.9860076904297C363.11187235514325,205.4195760091146,300.34961954752606,301.22377522786456,261.18878173828125,301.0489501953125C222.02794392903647,300.87412516276044,187.93705368041992,211.18880716959634,157.3426513671875,212.9370574951172C126.74824905395508,214.68530782063803,81.46852366129558,273.77621205647785,77.62236785888672,311.5384521484375C73.77621205647786,349.30069224039715,135.6643180847168,409.0909169514974,134.26571655273438,439.510498046875" fill="hsl(0, 0%, 90%)" stroke-width="0" stroke="hsl(340, 45%, 30%)" transform="matrix(1.05,0,0,1.05,-30.439987564086948,-111.94922561645512)"></path></svg>